# xmcd CD database file
#
# Track frame offsets:
#	150
#	2963
#	23582
#	43166
#	62454
#	65225
#	86285
#	104731
#	127710
#	148002
#	177746
#
# Disc length: 2475 seconds
#
# Revision: 0
# Processed by: cddbd v1.5.1PL2 Copyright (c) Steve Scherf et al.
# Submitted via: CDex 1.51
#
DISCID=9709a90b
DTITLE=Manuel Ochoa en piano - Rudias
DYEAR=2005
DGENRE=Jazz
TTITLE0=Intro 1
TTITLE1=Ciudad Campana
TTITLE2=There is not grather love
TTITLE3=Softly as in a morning sunrise
TTITLE4=Intro 2
TTITLE5=Feng shui
TTITLE6=Someday my prince will come
TTITLE7=Bye bye blackbird
TTITLE8=Payaso
TTITLE9=Milonga del Angel
TTITLE10=Willow Grove
EXTD=YEAR: 2005
EXTT0=
EXTT1=
EXTT2=
EXTT3=
EXTT4=
EXTT5=
EXTT6=
EXTT7=
EXTT8=
EXTT9=
EXTT10=
PLAYORDER=
